<svg width="28" height="28" viewBox="0 0 28 28" fill="none" xmlns="http://www.w3.org/2000/svg">
<path fill-rule="evenodd" clip-rule="evenodd" d="M9.95881 0.167459C7.81398 0.870555 5.98316 1.96148 4.383 3.49001C1.96063 5.80395 0.51457 8.68369 0.0667768 12.0853C0.0288264 12.3738 -0.000909688 13.1545 2.12752e-05 13.8377C0.0018832 15.1737 0.0892295 15.924 0.381278 17.1131C1.96988 23.5812 7.95089 28.1367 14.5347 27.893C17.5298 27.7822 20.0871 26.9112 22.4999 25.1801C25.0813 23.3282 26.9628 20.5962 27.8382 17.4289C28.0311 16.7311 28.0366 16.6266 27.8969 16.319C27.7549 16.006 27.4399 15.8426 27.0426 15.8755C26.8069 15.8951 26.6948 15.9457 26.3916 16.1691C24.8466 17.3075 23.5543 17.9502 22.1514 18.278C20.5045 18.6626 18.5422 18.6309 16.9689 18.1942C14.3749 17.4741 12.1481 15.818 10.7559 13.5733C9.72925 11.918 9.20205 10.059 9.20024 8.08766C9.19925 7.01146 9.26354 6.45442 9.50373 5.45905C9.85838 3.9895 10.3427 2.98987 11.4091 1.52661C11.5257 1.3667 11.6372 1.14037 11.6569 1.02373C11.7048 0.739947 11.5416 0.375173 11.2762 0.172716C10.9763 -0.0560269 10.6447 -0.0573411 9.95881 0.167459ZM8.36462 3.22748C7.93161 4.23528 7.59942 5.48819 7.46804 6.60907C7.37867 7.37131 7.39313 8.93483 7.49636 9.67577C7.89415 12.5305 9.17631 15.0529 11.2254 17.0117C13.5196 19.2051 16.5421 20.4092 19.7532 20.4092C21.5166 20.4092 22.9977 20.104 24.7129 19.3873C25.0265 19.2563 25.2942 19.1602 25.3078 19.1738C25.3214 19.1874 25.1796 19.4554 24.9926 19.7693C23.1748 22.8208 20.2417 24.9796 16.9141 25.7151C15.8638 25.9472 15.1786 26.0079 13.9296 25.9796C12.6772 25.9512 12.187 25.8867 11.0905 25.6058C7.50654 24.6877 4.38376 21.987 2.89718 18.5199C2.22103 16.943 1.91523 15.4101 1.92492 13.6461C1.93412 11.9693 2.18423 10.6413 2.77062 9.15553C3.76736 6.62999 5.69264 4.40186 8.04031 3.05673C8.31013 2.90219 8.53712 2.77569 8.54479 2.77569C8.55245 2.77569 8.47135 2.97897 8.36462 3.22748Z" fill="black"/>
</svg>
