<svg width="30" height="30" viewBox="0 0 30 30" fill="none" xmlns="http://www.w3.org/2000/svg">
<path fill-rule="evenodd" clip-rule="evenodd" d="M14.4839 0.126511C14.1025 0.333741 14.0489 0.661742 14.0489 2.7843C14.0489 5.27599 14.1407 5.54548 14.9896 5.54548C15.8385 5.54548 15.9303 5.27599 15.9303 2.7843C15.9303 1.58052 15.892 0.713796 15.8311 0.53891C15.6606 0.0501769 14.9979 -0.152663 14.4839 0.126511ZM4.49523 4.27075C4.23371 4.48255 4.10398 4.76136 4.10398 5.11123C4.10398 5.3732 4.27931 5.58087 5.69704 6.9986C7.2669 8.56855 7.29566 8.59166 7.675 8.59166C7.98096 8.59166 8.11356 8.53791 8.32177 8.32978C8.5299 8.12157 8.58365 7.98897 8.58365 7.68301C8.58365 7.30367 8.56054 7.27491 6.99059 5.70505C5.45774 4.1722 5.38409 4.11208 5.04193 4.11396C4.84115 4.11512 4.6031 4.1834 4.49523 4.27075ZM22.9886 5.70505C21.4186 7.27491 21.3955 7.30367 21.3955 7.68301C21.3955 7.98897 21.4493 8.12157 21.6574 8.32978C21.8656 8.53791 21.9982 8.59166 22.3042 8.59166C22.6835 8.59166 22.7123 8.56855 24.2821 6.9986C25.6999 5.58087 25.8752 5.3732 25.8752 5.11123C25.8752 4.51937 25.4968 4.1171 24.9372 4.11396C24.5951 4.11208 24.5214 4.1722 22.9886 5.70505ZM13.6067 7.60864C10.8671 8.18366 8.72467 10.0821 7.84693 12.713C7.57528 13.527 7.43626 13.591 7.43626 15.0517C7.43626 16.0372 7.57528 16.4682 7.84693 17.2822C8.62415 19.6118 10.37 21.3579 12.705 22.1413C13.5206 22.415 13.6159 22.4269 14.9896 22.4269C16.3633 22.4269 16.4586 22.415 17.2742 22.1413C19.6092 21.3579 21.355 19.6118 22.1323 17.2822C22.4039 16.4682 22.5328 15.9924 22.5328 14.9173C22.5328 14.1941 22.4039 13.527 22.1323 12.713C21.7418 11.5428 21.1465 10.5772 20.277 9.70352C19.4084 8.83088 18.4608 8.24933 17.2742 7.86067C16.5238 7.61483 16.28 7.57854 15.2136 7.55354C14.5483 7.53795 13.8252 7.56277 13.6067 7.60864ZM15.7167 9.40508C18.8322 9.83845 20.9224 12.5427 20.5752 15.6911C20.2373 18.7552 17.3417 21.0112 14.2843 20.5926C11.1552 20.1642 9.05913 17.4658 9.40254 14.3081C9.67168 11.8332 11.6782 9.76659 14.1568 9.41136C14.9495 9.29775 14.9449 9.29775 15.7167 9.40508ZM0.555 14.1447C-0.0272682 14.3799 -0.185311 15.1202 0.243931 15.6009L0.505186 15.8935L2.63303 15.9207C4.8752 15.9492 5.15142 15.9121 5.40667 15.5477C5.55808 15.3314 5.57949 14.7508 5.44519 14.4999C5.23259 14.1027 4.95243 14.0565 2.78695 14.0625C1.66345 14.0656 0.659108 14.1027 0.555 14.1447ZM24.8695 14.1941C24.7352 14.2683 24.5841 14.4063 24.5335 14.5006C24.3997 14.7509 24.4213 15.3317 24.5725 15.5477C24.8278 15.9121 25.104 15.9492 27.3461 15.9207L29.474 15.8935L29.7353 15.6009C30.0882 15.2055 30.0882 14.7897 29.7353 14.3943L29.4739 14.1017L27.2938 14.0804C25.4912 14.0629 25.0714 14.0826 24.8695 14.1941ZM5.69704 22.9966C4.27931 24.4143 4.10398 24.622 4.10398 24.884C4.10398 25.4758 4.48233 25.8781 5.04193 25.8812C5.38409 25.8831 5.45774 25.823 6.99059 24.2902C8.56054 22.7203 8.58365 22.6915 8.58365 22.3122C8.58365 21.769 8.2182 21.4035 7.675 21.4035C7.29566 21.4035 7.2669 21.4267 5.69704 22.9966ZM21.6574 21.6654C21.4493 21.8736 21.3955 22.0062 21.3955 22.3122C21.3955 22.6915 21.4186 22.7203 22.9886 24.2902C24.5214 25.823 24.5951 25.8831 24.9372 25.8812C25.4968 25.8781 25.8752 25.4758 25.8752 24.884C25.8752 24.622 25.6999 24.4143 24.2821 22.9966C22.7123 21.4267 22.6835 21.4035 22.3042 21.4035C21.9982 21.4035 21.8656 21.4573 21.6574 21.6654ZM14.466 24.5512C14.1103 24.7579 14.0489 25.15 14.0489 27.2109C14.0489 29.3565 14.1015 29.6657 14.5021 29.8728C15.0264 30.144 15.6606 29.9452 15.8311 29.4563C15.892 29.2814 15.9303 28.4147 15.9303 27.2109C15.9303 25.1276 15.8681 24.7457 15.4958 24.5465C15.2657 24.4234 14.6814 24.4261 14.466 24.5512Z" fill="black"/>
</svg>
